<mxfile host="app.diagrams.net" modified="2022-11-02T13:53:56.982Z" agent="5.0 (Macintosh; Intel Mac OS X 10_15_7) AppleWebKit/605.1.15 (KHTML, like Gecko) Version/16.1 Safari/605.1.15" etag="3-4deVtvgAC600N6uJ-R" version="20.5.1" type="github">
  <diagram id="4_VP_UPlwPBC3L0X7IEa" name="Page-1">
    <mxGraphModel dx="1426" dy="825" grid="1" gridSize="10" guides="1" tooltips="1" connect="1" arrows="1" fold="1" page="1" pageScale="1" pageWidth="827" pageHeight="1169" math="0" shadow="0">
      <root>
        <mxCell id="0" />
        <mxCell id="1" parent="0" />
        <mxCell id="MwnGBbin6eVgyp-TdyGV-3" value="" style="edgeStyle=orthogonalEdgeStyle;rounded=0;orthogonalLoop=1;jettySize=auto;html=1;fontSize=21;" edge="1" parent="1" source="MwnGBbin6eVgyp-TdyGV-1" target="MwnGBbin6eVgyp-TdyGV-2">
          <mxGeometry relative="1" as="geometry" />
        </mxCell>
        <mxCell id="MwnGBbin6eVgyp-TdyGV-1" value="source code in ts" style="rounded=1;whiteSpace=wrap;html=1;fontSize=21;" vertex="1" parent="1">
          <mxGeometry x="150" y="230" width="210" height="60" as="geometry" />
        </mxCell>
        <mxCell id="MwnGBbin6eVgyp-TdyGV-2" value="execute / deploy it" style="whiteSpace=wrap;html=1;fontSize=21;rounded=1;" vertex="1" parent="1">
          <mxGeometry x="485" y="230" width="120" height="60" as="geometry" />
        </mxCell>
        <mxCell id="MwnGBbin6eVgyp-TdyGV-4" value="dev" style="text;html=1;strokeColor=none;fillColor=none;align=center;verticalAlign=middle;whiteSpace=wrap;rounded=0;fontSize=21;" vertex="1" parent="1">
          <mxGeometry x="225" y="350" width="60" height="30" as="geometry" />
        </mxCell>
        <mxCell id="MwnGBbin6eVgyp-TdyGV-5" value="js" style="text;html=1;strokeColor=none;fillColor=none;align=center;verticalAlign=middle;whiteSpace=wrap;rounded=0;fontSize=21;" vertex="1" parent="1">
          <mxGeometry x="510" y="360" width="60" height="30" as="geometry" />
        </mxCell>
        <mxCell id="MwnGBbin6eVgyp-TdyGV-6" value="tsc" style="text;html=1;strokeColor=none;fillColor=none;align=center;verticalAlign=middle;whiteSpace=wrap;rounded=0;fontSize=21;" vertex="1" parent="1">
          <mxGeometry x="380" y="420" width="60" height="30" as="geometry" />
        </mxCell>
        <mxCell id="MwnGBbin6eVgyp-TdyGV-7" style="edgeStyle=orthogonalEdgeStyle;rounded=0;orthogonalLoop=1;jettySize=auto;html=1;exitX=0.75;exitY=0;exitDx=0;exitDy=0;entryX=0.75;entryY=0.333;entryDx=0;entryDy=0;entryPerimeter=0;fontSize=21;" edge="1" parent="1" source="MwnGBbin6eVgyp-TdyGV-4" target="MwnGBbin6eVgyp-TdyGV-4">
          <mxGeometry relative="1" as="geometry" />
        </mxCell>
      </root>
    </mxGraphModel>
  </diagram>
</mxfile>
